<mxfile host="app.diagrams.net" modified="2022-07-18T20:10:44.908Z" agent="5.0 (Macintosh)" etag="dE6LSm-9FG9sDKb-zPcI" version="20.1.1" type="github">
  <diagram id="n5JoRgDSk-vBpJm4k_6t" name="Page-1">
    <mxGraphModel dx="946" dy="612" grid="1" gridSize="10" guides="1" tooltips="1" connect="1" arrows="1" fold="1" page="1" pageScale="1" pageWidth="850" pageHeight="1100" math="0" shadow="0">
      <root>
        <object label="" id="0">
          <mxCell />
        </object>
        <mxCell id="1" parent="0" />
        <mxCell id="W5VlvD_ca-9JVoFKrpnI-15" style="edgeStyle=orthogonalEdgeStyle;rounded=0;orthogonalLoop=1;jettySize=auto;html=1;exitX=0.5;exitY=1;exitDx=0;exitDy=0;" edge="1" parent="1" source="W5VlvD_ca-9JVoFKrpnI-3">
          <mxGeometry relative="1" as="geometry">
            <mxPoint x="430" y="170" as="targetPoint" />
          </mxGeometry>
        </mxCell>
        <mxCell id="W5VlvD_ca-9JVoFKrpnI-3" value="start" style="rounded=1;whiteSpace=wrap;html=1;fontSize=12;glass=0;strokeWidth=1;shadow=0;" vertex="1" parent="1">
          <mxGeometry x="370" y="70" width="120" height="40" as="geometry" />
        </mxCell>
        <mxCell id="W5VlvD_ca-9JVoFKrpnI-4" value="Yes" style="rounded=0;html=1;jettySize=auto;orthogonalLoop=1;fontSize=11;endArrow=block;endFill=0;endSize=8;strokeWidth=1;shadow=0;labelBackgroundColor=none;edgeStyle=orthogonalEdgeStyle;" edge="1" parent="1" source="W5VlvD_ca-9JVoFKrpnI-6" target="W5VlvD_ca-9JVoFKrpnI-10">
          <mxGeometry y="20" relative="1" as="geometry">
            <mxPoint as="offset" />
          </mxGeometry>
        </mxCell>
        <mxCell id="W5VlvD_ca-9JVoFKrpnI-5" value="No" style="edgeStyle=orthogonalEdgeStyle;rounded=0;html=1;jettySize=auto;orthogonalLoop=1;fontSize=11;endArrow=block;endFill=0;endSize=8;strokeWidth=1;shadow=0;labelBackgroundColor=none;" edge="1" parent="1" source="W5VlvD_ca-9JVoFKrpnI-6" target="W5VlvD_ca-9JVoFKrpnI-7">
          <mxGeometry y="10" relative="1" as="geometry">
            <mxPoint as="offset" />
          </mxGeometry>
        </mxCell>
        <mxCell id="W5VlvD_ca-9JVoFKrpnI-6" value="Lamp&lt;br&gt;plugged in?" style="rhombus;whiteSpace=wrap;html=1;shadow=0;fontFamily=Helvetica;fontSize=12;align=center;strokeWidth=1;spacing=6;spacingTop=-4;" vertex="1" parent="1">
          <mxGeometry x="380" y="370" width="100" height="80" as="geometry" />
        </mxCell>
        <mxCell id="W5VlvD_ca-9JVoFKrpnI-7" value="Plug in lamp" style="rounded=1;whiteSpace=wrap;html=1;fontSize=12;glass=0;strokeWidth=1;shadow=0;" vertex="1" parent="1">
          <mxGeometry x="560" y="390" width="120" height="40" as="geometry" />
        </mxCell>
        <mxCell id="W5VlvD_ca-9JVoFKrpnI-8" value="No" style="rounded=0;html=1;jettySize=auto;orthogonalLoop=1;fontSize=11;endArrow=block;endFill=0;endSize=8;strokeWidth=1;shadow=0;labelBackgroundColor=none;edgeStyle=orthogonalEdgeStyle;" edge="1" parent="1" source="W5VlvD_ca-9JVoFKrpnI-10" target="W5VlvD_ca-9JVoFKrpnI-11">
          <mxGeometry x="0.3333" y="20" relative="1" as="geometry">
            <mxPoint as="offset" />
          </mxGeometry>
        </mxCell>
        <mxCell id="W5VlvD_ca-9JVoFKrpnI-9" value="Yes" style="edgeStyle=orthogonalEdgeStyle;rounded=0;html=1;jettySize=auto;orthogonalLoop=1;fontSize=11;endArrow=block;endFill=0;endSize=8;strokeWidth=1;shadow=0;labelBackgroundColor=none;" edge="1" parent="1" source="W5VlvD_ca-9JVoFKrpnI-10" target="W5VlvD_ca-9JVoFKrpnI-12">
          <mxGeometry y="10" relative="1" as="geometry">
            <mxPoint as="offset" />
          </mxGeometry>
        </mxCell>
        <mxCell id="W5VlvD_ca-9JVoFKrpnI-10" value="Bulb&lt;br&gt;burned out?" style="rhombus;whiteSpace=wrap;html=1;shadow=0;fontFamily=Helvetica;fontSize=12;align=center;strokeWidth=1;spacing=6;spacingTop=-4;" vertex="1" parent="1">
          <mxGeometry x="380" y="480" width="100" height="80" as="geometry" />
        </mxCell>
        <mxCell id="W5VlvD_ca-9JVoFKrpnI-11" value="Repair Lamp" style="rounded=1;whiteSpace=wrap;html=1;fontSize=12;glass=0;strokeWidth=1;shadow=0;" vertex="1" parent="1">
          <mxGeometry x="370" y="590" width="120" height="40" as="geometry" />
        </mxCell>
        <mxCell id="W5VlvD_ca-9JVoFKrpnI-12" value="Replace Bulb" style="rounded=1;whiteSpace=wrap;html=1;fontSize=12;glass=0;strokeWidth=1;shadow=0;" vertex="1" parent="1">
          <mxGeometry x="540" y="500" width="120" height="40" as="geometry" />
        </mxCell>
        <mxCell id="W5VlvD_ca-9JVoFKrpnI-19" value="" style="edgeStyle=orthogonalEdgeStyle;rounded=0;orthogonalLoop=1;jettySize=auto;html=1;" edge="1" parent="1" source="W5VlvD_ca-9JVoFKrpnI-13" target="W5VlvD_ca-9JVoFKrpnI-18">
          <mxGeometry relative="1" as="geometry" />
        </mxCell>
        <mxCell id="W5VlvD_ca-9JVoFKrpnI-13" value="enter the word on which the program is to be runned" style="whiteSpace=wrap;html=1;shadow=0;strokeWidth=1;spacing=6;spacingTop=-4;" vertex="1" parent="1">
          <mxGeometry x="370" y="170" width="120" height="60" as="geometry" />
        </mxCell>
        <mxCell id="W5VlvD_ca-9JVoFKrpnI-21" style="edgeStyle=orthogonalEdgeStyle;rounded=0;orthogonalLoop=1;jettySize=auto;html=1;entryX=0.5;entryY=0;entryDx=0;entryDy=0;" edge="1" parent="1" source="W5VlvD_ca-9JVoFKrpnI-18" target="W5VlvD_ca-9JVoFKrpnI-6">
          <mxGeometry relative="1" as="geometry" />
        </mxCell>
        <mxCell id="W5VlvD_ca-9JVoFKrpnI-18" value="separate each character of the word in a list" style="whiteSpace=wrap;html=1;shadow=0;strokeWidth=1;spacing=6;spacingTop=-4;" vertex="1" parent="1">
          <mxGeometry x="370" y="270" width="120" height="80" as="geometry" />
        </mxCell>
        <mxCell id="W5VlvD_ca-9JVoFKrpnI-24" value="because the list is associated " style="text;html=1;align=center;verticalAlign=middle;resizable=0;points=[];autosize=1;strokeColor=none;fillColor=none;" vertex="1" parent="1">
          <mxGeometry x="180" y="305" width="180" height="30" as="geometry" />
        </mxCell>
      </root>
    </mxGraphModel>
  </diagram>
</mxfile>
